<svg width="214" height="56" viewBox="0 0 214 56" fill="none" xmlns="http://www.w3.org/2000/svg">
<path d="M1.82955 16.6257V11.5455H28.5213V16.6257H18.1811V45H12.1697V16.6257H1.82955ZM33.6669 45V11.5455H46.2124C48.7824 11.5455 50.9387 11.9919 52.6811 12.8849C54.4344 13.7779 55.7576 15.0303 56.6506 16.642C57.5545 18.2429 58.0064 20.1106 58.0064 22.245C58.0064 24.3904 57.549 26.2526 56.6342 27.8317C55.7304 29.3999 54.3963 30.6141 52.6321 31.4744C50.8679 32.3239 48.7008 32.7486 46.1307 32.7486H37.1953V27.7173H45.3139C46.8168 27.7173 48.0473 27.5104 49.0057 27.0966C49.964 26.6719 50.6719 26.0566 51.1293 25.2507C51.5975 24.4339 51.8317 23.4321 51.8317 22.245C51.8317 21.058 51.5975 20.0452 51.1293 19.2067C50.661 18.3572 49.9477 17.7147 48.9893 17.2791C48.031 16.8326 46.795 16.6094 45.2812 16.6094H39.7273V45H33.6669ZM50.9496 29.8409L59.2315 45H52.4688L44.3338 29.8409H50.9496ZM69.6452 11.5455V45H63.5849V11.5455H69.6452ZM80.6838 11.5455L89.3904 37.8778H89.7335L98.4238 11.5455H105.089L93.2946 45H85.813L74.0353 11.5455H80.6838ZM109.495 45V11.5455H115.555V39.9197H130.29V45H109.495ZM164.14 28.2727C164.14 31.8774 163.465 34.9647 162.115 37.5348C160.775 40.094 158.946 42.0542 156.626 43.4155C154.318 44.7768 151.698 45.4574 148.769 45.4574C145.84 45.4574 143.215 44.7768 140.895 43.4155C138.587 42.0433 136.757 40.0777 135.407 37.5185C134.067 34.9484 133.398 31.8665 133.398 28.2727C133.398 24.6681 134.067 21.5862 135.407 19.027C136.757 16.4569 138.587 14.4912 140.895 13.13C143.215 11.7687 145.84 11.0881 148.769 11.0881C151.698 11.0881 154.318 11.7687 156.626 13.13C158.946 14.4912 160.775 16.4569 162.115 19.027C163.465 21.5862 164.14 24.6681 164.14 28.2727ZM158.047 28.2727C158.047 25.7353 157.65 23.5954 156.855 21.853C156.071 20.0997 154.982 18.7765 153.588 17.8835C152.194 16.9796 150.588 16.5277 148.769 16.5277C146.95 16.5277 145.344 16.9796 143.95 17.8835C142.556 18.7765 141.462 20.0997 140.667 21.853C139.883 23.5954 139.491 25.7353 139.491 28.2727C139.491 30.8101 139.883 32.9555 140.667 34.7088C141.462 36.4512 142.556 37.7744 143.95 38.6783C145.344 39.5713 146.95 40.0178 148.769 40.0178C150.588 40.0178 152.194 39.5713 153.588 38.6783C154.982 37.7744 156.071 36.4512 156.855 34.7088C157.65 32.9555 158.047 30.8101 158.047 28.2727Z" fill="white"/>
<path d="M195.902 25.5556L200.74 40.5051L198.637 42.9164L191.141 31.0127L185.504 37.4745L187.558 42.8056L185.98 44.6141L181.321 38.4259L174.558 34.649L176.136 32.8405L181.696 34.1528L187.334 27.691L174.524 21.879L176.628 19.4677L192.095 22.2339L197.825 15.6663C198.696 14.6675 200.255 14.6015 201.306 15.5187C202.358 16.4359 202.504 17.9892 201.632 18.988L195.902 25.5556Z" fill="#CFA038"/>
</svg>
