<svg width="121" height="32" viewBox="0 0 121 32" fill="none" xmlns="http://www.w3.org/2000/svg">
<path d="M0.994318 9.57919V6.81818H15.5007V9.57919H9.88104V25H6.61399V9.57919H0.994318ZM18.2972 25V6.81818H25.1154C26.5122 6.81818 27.6841 7.06084 28.631 7.54616C29.5839 8.03149 30.303 8.71212 30.7884 9.58807C31.2796 10.4581 31.5252 11.4731 31.5252 12.6332C31.5252 13.7991 31.2766 14.8112 30.7795 15.6694C30.2882 16.5217 29.5632 17.1816 28.6044 17.6491C27.6456 18.1108 26.4678 18.3416 25.071 18.3416H20.2148V15.6072H24.6271C25.4439 15.6072 26.1127 15.4948 26.6335 15.2699C27.1544 15.0391 27.5391 14.7047 27.7876 14.2667C28.0421 13.8228 28.1694 13.2783 28.1694 12.6332C28.1694 11.988 28.0421 11.4376 27.7876 10.9819C27.5331 10.5202 27.1455 10.171 26.6246 9.9343C26.1038 9.69164 25.4321 9.57031 24.6094 9.57031H21.5909V25H18.2972ZM27.69 16.7614L32.1911 25H28.5156L24.0945 16.7614H27.69ZM37.8507 6.81818V25H34.557V6.81818H37.8507ZM43.8499 6.81818L48.5818 21.1293H48.7682L53.4912 6.81818H57.1134L50.7036 25H46.6375L40.2366 6.81818H43.8499ZM59.5082 25V6.81818H62.8018V22.239H70.8097V25H59.5082ZM89.2068 15.9091C89.2068 17.8681 88.8398 19.546 88.1059 20.9428C87.3779 22.3337 86.3836 23.399 85.123 24.1388C83.8682 24.8787 82.4448 25.2486 80.8527 25.2486C79.2606 25.2486 77.8343 24.8787 76.5736 24.1388C75.3189 23.3931 74.3245 22.3248 73.5906 20.9339C72.8627 19.5372 72.4987 17.8622 72.4987 15.9091C72.4987 13.95 72.8627 12.2751 73.5906 10.8842C74.3245 9.48745 75.3189 8.41915 76.5736 7.67933C77.8343 6.93951 79.2606 6.5696 80.8527 6.5696C82.4448 6.5696 83.8682 6.93951 85.123 7.67933C86.3836 8.41915 87.3779 9.48745 88.1059 10.8842C88.8398 12.2751 89.2068 13.95 89.2068 15.9091ZM85.8953 15.9091C85.8953 14.5301 85.6793 13.3671 85.2472 12.4201C84.8211 11.4672 84.2293 10.7481 83.4717 10.2628C82.7141 9.77154 81.8411 9.52592 80.8527 9.52592C79.8643 9.52592 78.9913 9.77154 78.2338 10.2628C77.4762 10.7481 76.8814 11.4672 76.4493 12.4201C76.0232 13.3671 75.8101 14.5301 75.8101 15.9091C75.8101 17.2881 76.0232 18.4541 76.4493 19.407C76.8814 20.3539 77.4762 21.073 78.2338 21.5643C78.9913 22.0496 79.8643 22.2923 80.8527 22.2923C81.8411 22.2923 82.7141 22.0496 83.4717 21.5643C84.2293 21.073 84.8211 20.3539 85.2472 19.407C85.6793 18.4541 85.8953 17.2881 85.8953 15.9091Z" fill="#E2E1D5"/>
<path d="M108.98 14.132L112.306 24.4098L110.86 26.0675L105.706 17.8837L101.831 22.3262L103.243 25.9913L102.158 27.2347L98.955 22.9803L94.3055 20.3837L95.3903 19.1403L99.2131 20.0425L103.089 15.6001L94.282 11.6043L95.7283 9.94653L106.362 11.8483L110.302 7.33309C110.901 6.64643 111.972 6.60101 112.695 7.23161C113.418 7.86221 113.518 8.93009 112.919 9.61676L108.98 14.132Z" fill="#CFA038"/>
</svg>
