<svg width="170" height="42" viewBox="0 0 170 42" fill="none" xmlns="http://www.w3.org/2000/svg">
<path d="M1.39205 12.4109V8.54545H21.701V12.4109H13.8335V34H9.25959V12.4109H1.39205ZM25.6161 34V8.54545H35.1616C37.1171 8.54545 38.7577 8.88518 40.0835 9.56463C41.4175 10.2441 42.4242 11.197 43.1037 12.4233C43.7914 13.6413 44.1353 15.0624 44.1353 16.6864C44.1353 18.3188 43.7873 19.7357 43.0913 20.9371C42.4035 22.1303 41.3885 23.0542 40.0462 23.7088C38.7038 24.3551 37.0549 24.6783 35.0994 24.6783H28.3008V20.8501H34.478C35.6214 20.8501 36.5578 20.6927 37.2869 20.3778C38.0161 20.0547 38.5547 19.5865 38.9027 18.9734C39.259 18.3519 39.4371 17.5896 39.4371 16.6864C39.4371 15.7833 39.259 15.0127 38.9027 14.3746C38.5464 13.7283 38.0037 13.2395 37.2745 12.908C36.5453 12.5683 35.6049 12.3984 34.4531 12.3984H30.2273V34H25.6161ZM38.766 22.4659L45.0675 34H39.9219L33.7322 22.4659H38.766ZM52.9909 8.54545V34H48.3798V8.54545H52.9909ZM61.3898 8.54545L68.0145 28.581H68.2755L74.8877 8.54545H79.9587L70.985 34H65.2925L56.3312 8.54545H61.3898ZM83.3114 34V8.54545H87.9226V30.1346H99.1335V34H83.3114ZM124.889 21.2727C124.889 24.0154 124.376 26.3645 123.348 28.32C122.329 30.2672 120.937 31.7586 119.172 32.7944C117.416 33.8301 115.423 34.348 113.194 34.348C110.965 34.348 108.968 33.8301 107.203 32.7944C105.446 31.7504 104.054 30.2547 103.027 28.3075C102.008 26.352 101.498 24.0071 101.498 21.2727C101.498 18.5301 102.008 16.1851 103.027 14.2379C104.054 12.2824 105.446 10.7868 107.203 9.75106C108.968 8.71532 110.965 8.19744 113.194 8.19744C115.423 8.19744 117.416 8.71532 119.172 9.75106C120.937 10.7868 122.329 12.2824 123.348 14.2379C124.376 16.1851 124.889 18.5301 124.889 21.2727ZM120.253 21.2727C120.253 19.3421 119.951 17.7139 119.346 16.3881C118.75 15.0541 117.921 14.0473 116.86 13.3679C115.8 12.6802 114.578 12.3363 113.194 12.3363C111.81 12.3363 110.588 12.6802 109.527 13.3679C108.467 14.0473 107.634 15.0541 107.029 16.3881C106.432 17.7139 106.134 19.3421 106.134 21.2727C106.134 23.2034 106.432 24.8357 107.029 26.1697C107.634 27.4955 108.467 28.5022 109.527 29.19C110.588 29.8694 111.81 30.2092 113.194 30.2092C114.578 30.2092 115.8 29.8694 116.86 29.19C117.921 28.5022 118.75 27.4955 119.346 26.1697C119.951 24.8357 120.253 23.2034 120.253 21.2727Z" fill="white"/>
<path d="M153.86 19.9861L158.093 33.067L156.252 35.1768L149.694 24.7611L144.761 30.4151L146.558 35.0799L145.178 36.6623L141.101 31.2476L135.184 27.9428L136.564 26.3604L141.43 27.5087L146.362 21.8546L135.154 16.7691L136.994 14.6592L150.528 17.0796L155.542 11.333C156.305 10.4591 157.669 10.4013 158.588 11.2039C159.508 12.0064 159.636 13.3656 158.874 14.2395L153.86 19.9861Z" fill="#CFA038"/>
</svg>
